<?xml version="1.0" encoding="UTF-8"?>
<svg id="Layer_1" xmlns="http://www.w3.org/2000/svg" xmlns:xlink="http://www.w3.org/1999/xlink" version="1.1" viewBox="0 0 586.68 213.02">
  <!-- Generator: Adobe Illustrator 29.3.1, SVG Export Plug-In . SVG Version: 2.1.0 Build 151)  -->
  <defs>
    <clipPath id="clippath">
      <rect width="586.68" height="213.02" fill="none"/>
    </clipPath>
  </defs>
  <g id="Group_27" opacity=".1">
    <g clip-path="url(#clippath)">
      <g id="Group_26">
        <path id="Path_27" d="M582.53,166.79c8.53,14.7,3.52,33.53-11.19,42.06-14.7,8.53-33.53,3.52-42.06-11.19h0c-.79-1.35-80.99-136.11-235.95-136.11S58.21,196.28,57.42,197.63c-8.56,14.68-27.4,19.65-42.08,11.09-14.61-8.52-19.61-27.23-11.2-41.9C8.06,160,102.82,0,293.33,0s285.24,160,289.19,166.79" fill="#e48131"/>
        <path id="Path_28" d="M459.59,163.23c10.57,13.3,8.36,32.65-4.94,43.23s-32.65,8.36-43.23-4.94c-.08-.1-.16-.2-.23-.3-7.55-9.59-48.67-57.5-117.99-57.79-71.63.03-114.7,51.86-119.34,57.79-10.49,13.38-29.84,15.71-43.21,5.22-13.38-10.49-15.71-29.84-5.22-43.21,10.71-13.61,68.86-81.35,167.08-81.35h.96c97.66.43,155.52,67.84,166.13,81.35" fill="#e48131"/>
      </g>
    </g>
  </g>
</svg>