<?xml version="1.0" encoding="UTF-8"?>
<svg id="Layer_1" xmlns="http://www.w3.org/2000/svg" xmlns:xlink="http://www.w3.org/1999/xlink" version="1.1" viewBox="0 0 160.67 250">
  <!-- Generator: Adobe Illustrator 30.0.0, SVG Export Plug-In . SVG Version: 2.1.1 Build 123)  -->
  <defs>
    <style>
      .st0 {
        fill: none;
      }

      .st1 {
        fill: #4e9b7b;
      }

      .st2 {
        fill: #e48131;
      }

      .st3 {
        clip-path: url(#clippath-1);
      }

      .st4 {
        clip-path: url(#clippath-2);
      }

      .st5 {
        fill: #0b3652;
      }

      .st6 {
        clip-path: url(#clippath);
      }
    </style>
    <clipPath id="clippath">
      <rect class="st0" x="5.17" width="150.34" height="250"/>
    </clipPath>
    <clipPath id="clippath-1">
      <rect class="st0" x="5.17" width="150.34" height="250"/>
    </clipPath>
    <clipPath id="clippath-2">
      <rect class="st0" x="5.17" width="150.34" height="250"/>
    </clipPath>
  </defs>
  <g class="st6">
    <g id="Group_5">
      <g id="Group_4">
        <g class="st3">
          <g id="Group_3">
            <g id="Group_2">
              <g class="st4">
                <g id="Group_1">
                  <path id="Path_1" class="st1" d="M115.19,111.61c8.33,8.03,23.09,15.27,9.64,27.03-12.37,10.62-28.19,16.34-44.49,16.1-16.3.24-32.12-5.48-44.49-16.1-13.45-11.76,1.3-19,9.64-27.03l18.11,16.19c-3.06-14.52,6.32-19.93,16.74-27.07,10.42,7.14,19.8,12.55,16.74,27.07l18.11-16.19Z"/>
                  <path id="Path_2" class="st1" d="M149.86,199l5.64,5.31c-1.52,1.73-3.4,3.11-5.5,4.05-2.37,1.04-4.95,1.55-7.54,1.49-2.45.02-4.89-.41-7.19-1.28-4.31-1.63-7.76-4.97-9.51-9.24-1.84-4.66-1.84-9.85.02-14.51.88-2.11,2.2-4.01,3.87-5.57,1.67-1.55,3.64-2.75,5.79-3.53,4.58-1.65,9.58-1.64,14.15.02,2.14.74,4.05,2,5.58,3.67l-5.5,5.5c-.76-1.04-1.79-1.85-2.99-2.32-1.2-.5-2.5-.76-3.8-.76-1.34-.01-2.68.25-3.91.78-1.15.51-2.19,1.24-3.05,2.16-.88.94-1.55,2.04-2,3.24-.48,1.31-.72,2.7-.71,4.1-.02,1.42.22,2.84.71,4.17.44,1.2,1.11,2.31,1.98,3.25.84.91,1.87,1.62,3.01,2.11,1.21.52,2.52.78,3.84.76,1.46.04,2.91-.29,4.22-.95,1.14-.58,2.14-1.43,2.89-2.46"/>
                  <path id="Path_3" class="st1" d="M154.67,219.8v6.23h-8.54v23.97h-7.3v-23.97h-8.54v-6.23h24.37Z"/>
                  <path id="Path_4" class="st2" d="M144.31,36.88c1.94,3.22.9,7.4-2.32,9.34s-7.4.9-9.34-2.32c-.04-.07-.08-.13-.12-.2-.18-.3-17.92-30.09-52.19-30.09s-52.01,29.79-52.19,30.09c-1.88,3.25-6.04,4.37-9.3,2.49-3.25-1.88-4.37-6.04-2.49-9.3h0c.87-1.51,21.83-36.88,63.97-36.88s63.1,35.38,63.97,36.88"/>
                  <path id="Path_5" class="st1" d="M143.06,97.62v12.17c0,.53-.43.96-.96.96h-8.75c-.53,0-.96-.43-.96-.96v-12.17c0-.53.43-.96.96-.96h8.75c.53,0,.96.43.96.96h0"/>
                  <path id="Path_6" class="st1" d="M128.12,97.62v12.17c0,.53-.43.96-.96.96h-8.75c-.53,0-.96-.43-.96-.96v-12.17c0-.53.43-.96.96-.96h8.75c.53,0,.96.43.96.96h0"/>
                  <path id="Path_7" class="st1" d="M117.7,237.08l7.9,12.92h-8.54l-6.56-11.98h-2.49v11.98h-7.13v-30.2h11.52c1.43,0,2.85.15,4.25.44,1.32.28,2.58.79,3.71,1.52,1.09.71,1.99,1.68,2.62,2.82.7,1.34,1.04,2.84.98,4.35.06,1.86-.53,3.69-1.66,5.17-1.19,1.45-2.81,2.49-4.61,2.98M116.76,229.06c.03-.61-.13-1.21-.45-1.73-.3-.43-.69-.78-1.16-1.02-.5-.25-1.04-.42-1.59-.5-.56-.08-1.13-.12-1.69-.12h-3.91v7.04h3.48c.62,0,1.23-.05,1.84-.15.6-.09,1.17-.27,1.71-.54.52-.25.95-.63,1.27-1.11.35-.56.52-1.21.49-1.87"/>
                  <path id="Path_8" class="st2" d="M117.11,36.09c2.32,2.96,1.8,7.23-1.15,9.55-2.96,2.32-7.23,1.8-9.55-1.15h0c-1.67-2.12-10.76-12.71-26.1-12.78-15.85,0-25.37,11.47-26.4,12.78-2.32,2.96-6.6,3.48-9.56,1.16-2.96-2.32-3.48-6.6-1.16-9.56,2.37-3.01,15.23-17.99,36.96-17.99h.21c21.6.09,34.4,15,36.75,17.99"/>
                  <rect id="Rectangle_1" class="st1" x="105.07" y="175.39" width="8.16" height="33.56"/>
                  <path id="Path_9" class="st1" d="M96.27,175.39l-12.94,33.56h-8.11l-12.71-33.56h9.1l7.78,23.8h.19l7.73-23.8h8.97Z"/>
                  <path id="Path_10" class="st1" d="M93.14,67.09v12.17c0,.53-.43.96-.96.96h-8.75c-.53,0-.96-.43-.96-.96h0v-12.17c0-.53.43-.96.96-.95h8.75c.53,0,.96.43.96.95"/>
                  <path id="Path_11" class="st1" d="M91.97,243.77v6.23h-21.09v-30.2h20.32v6.14h-13.27v5.72h12.54v5.84h-12.54v6.27h14.04Z"/>
                  <path id="Path_12" class="st5" d="M118.41,110.76h8.75c.53,0,.96-.43.96-.96h0v-12.18c0-.53-.43-.96-.96-.96h-8.75c-.53,0-.96.43-.96.96v12.17c0,.53.43.96.96.96M133.35,110.76h8.75c.53,0,.96-.43.96-.96h0v-12.18c0-.53-.43-.96-.96-.96h-8.75c-.53,0-.96.43-.96.96v12.17c0,.53.43.96.96.96M83.43,80.22h8.75c.53,0,.96-.43.96-.96h0v-12.17c0-.53-.43-.96-.96-.95h-8.75c-.53,0-.96.43-.96.95v12.17c0,.53.43.96.96.96h0M80.33,154.74c16.3.24,32.12-5.48,44.49-16.1,13.46-11.76-1.3-19-9.64-27.03l-18.11,16.2c3.06-14.52-6.32-19.93-16.74-27.07-10.42,7.14-19.8,12.55-16.74,27.07l-18.11-16.19c-8.33,8.03-23.09,15.27-9.64,27.03,12.37,10.62,28.19,16.34,44.49,16.1M17.99,110.76h8.75c.53,0,.96-.43.95-.96v-12.17c0-.53-.43-.96-.95-.96h-8.75c-.53,0-.96.43-.96.96,0,0,0,0,0,0v12.17c0,.53.43.96.96.96h0M68.49,80.22h8.75c.53,0,.96-.43.96-.96h0v-12.17c0-.53-.43-.96-.96-.95h-8.75c-.53,0-.96.43-.96.95v12.17c0,.53.43.96.96.96h0M32.93,110.76h8.74c.53,0,.96-.43.96-.96h0v-12.18c0-.53-.43-.96-.96-.96h-8.74c-.53,0-.96.43-.96.96h0v12.17c0,.53.43.96.96.96h0M154.07,94.46c4.38,7.62-5.23,26.7-9.83,33.75-14.93,22.88-39.48,34.07-63.91,34.16-24.43-.09-48.97-11.28-63.91-34.16-4.6-7.05-14.21-26.13-9.83-33.75l23.8-21.04,25.08,20.41-.16-15.43c0-4.2-12.49-.01-4.55-7.62,2.33-2.24,26.21-26.24,29.57-27.14,3.36.9,27.24,24.9,29.57,27.14,7.94,7.61-4.55,3.42-4.55,7.62l-.16,15.43,25.08-20.41,23.79,21.04Z"/>
                  <path id="Path_13" class="st1" d="M78.2,67.09v12.17c0,.53-.43.96-.96.96h-8.75c-.53,0-.96-.43-.96-.96h0v-12.17c0-.53.43-.96.96-.95h8.75c.53,0,.96.43.96.95"/>
                  <path id="Path_14" class="st1" d="M63.88,243.65v6.35h-19.04v-30.2h7.35v23.85h11.69Z"/>
                  <rect id="Rectangle_2" class="st1" x="45.53" y="175.39" width="8.16" height="33.56"/>
                  <path id="Path_15" class="st1" d="M42.63,97.62v12.17c0,.53-.43.96-.96.96h-8.74c-.53,0-.96-.43-.96-.96h0v-12.18c0-.53.43-.96.96-.96h8.74c.53,0,.96.43.96.96h0"/>
                  <path id="Path_16" class="st1" d="M25.76,219.8l12.55,30.2h-8.11l-2.35-5.93h-11.69l-2.22,5.93h-7.94l12.68-30.2h7.08ZM25.84,238.23l-3.75-10.37-3.85,10.37h7.6Z"/>
                  <path id="Path_17" class="st1" d="M30.63,199l5.65,5.31c-1.52,1.73-3.4,3.11-5.5,4.05-2.38,1.04-4.95,1.55-7.54,1.49-2.45.02-4.89-.41-7.18-1.28-2.13-.81-4.08-2.04-5.72-3.63-1.63-1.59-2.92-3.5-3.79-5.61-1.85-4.66-1.84-9.85.02-14.51.88-2.11,2.2-4.01,3.86-5.57,1.68-1.55,3.64-2.75,5.79-3.53,4.58-1.65,9.59-1.64,14.16.02,2.14.74,4.05,2,5.57,3.67l-5.5,5.5c-.76-1.04-1.79-1.85-2.99-2.32-1.2-.5-2.49-.76-3.79-.76-1.34-.01-2.68.25-3.91.78-1.16.51-2.2,1.24-3.06,2.16-.87.94-1.55,2.04-1.99,3.24-.49,1.31-.73,2.7-.71,4.1-.02,1.42.23,2.84.71,4.17.44,1.2,1.11,2.31,1.97,3.25.85.9,1.87,1.62,3.01,2.11,1.21.52,2.52.77,3.84.76,1.47.04,2.92-.29,4.23-.95,1.14-.58,2.13-1.43,2.89-2.46"/>
                  <path id="Path_18" class="st1" d="M27.69,97.62v12.17c0,.53-.43.96-.95.96h-8.75c-.53,0-.96-.43-.96-.96h0v-12.18c0-.53.43-.96.96-.96h8.75c.53,0,.96.43.95.96"/>
                </g>
              </g>
            </g>
          </g>
        </g>
      </g>
    </g>
  </g>
</svg>