<?xml version="1.0" encoding="UTF-8"?>
<svg id="Layer_1" xmlns="http://www.w3.org/2000/svg" xmlns:xlink="http://www.w3.org/1999/xlink" version="1.1" viewBox="0 0 41.39 23.47">
  <!-- Generator: Adobe Illustrator 29.3.1, SVG Export Plug-In . SVG Version: 2.1.0 Build 151)  -->
  <defs>
    <clipPath id="clippath">
      <rect x=".8" y="1.74" width="39.8" height="20" fill="none"/>
    </clipPath>
    <clipPath id="clippath-1">
      <rect x=".8" y="1.74" width="39.8" height="20" fill="none"/>
    </clipPath>
    <clipPath id="clippath-2">
      <rect x=".8" y="1.74" width="39.8" height="20" fill="none"/>
    </clipPath>
  </defs>
  <g id="Group_30">
    <g id="Civic_Alert">
      <g clip-path="url(#clippath)">
        <g id="Group_12">
          <g id="Group_11">
            <g clip-path="url(#clippath-1)">
              <g id="Group_10">
                <g id="Group_9">
                  <g clip-path="url(#clippath-2)">
                    <g id="Group_8">
                      <path id="Path_19" d="M39.1,8.23l1.49,1.41c-.4.46-.9.82-1.46,1.07-.63.28-1.31.41-2,.4-.65,0-1.29-.11-1.9-.34-1.14-.43-2.05-1.32-2.52-2.45-.25-.61-.37-1.26-.37-1.91,0-.66.12-1.32.37-1.93.23-.56.58-1.06,1.02-1.48.44-.41.97-.73,1.54-.94,1.21-.44,2.54-.43,3.75,0,.57.2,1.07.53,1.48.97l-1.46,1.46c-.2-.28-.47-.49-.79-.62-.32-.13-.66-.2-1.01-.2-.36,0-.71.07-1.04.21-.31.13-.58.33-.81.57-.23.25-.41.54-.53.86-.13.35-.19.72-.19,1.09,0,.38.06.75.19,1.11.12.32.29.61.52.86.22.24.5.43.8.56.32.14.67.2,1.02.2.39,0,.77-.08,1.12-.25.3-.15.57-.38.77-.65" fill="#fffdfe"/>
                      <path id="Path_20" d="M40.38,13.74v1.65h-2.26v6.35h-1.93v-6.35h-2.26v-1.65h6.45Z" fill="#fffdfe"/>
                      <path id="Path_21" d="M30.59,18.31l2.09,3.42h-2.26l-1.74-3.17h-.66v3.17h-1.88v-8h3.05c.38,0,.76.04,1.12.12.35.07.68.21.98.4.29.19.53.44.7.75.18.36.27.75.26,1.15.02.49-.14.98-.44,1.37-.32.38-.74.66-1.22.79M30.34,16.19c0-.16-.03-.32-.12-.46-.08-.11-.18-.21-.31-.27-.13-.07-.27-.11-.42-.13-.15-.02-.3-.03-.45-.03h-1.03v1.86h.92c.16,0,.33-.01.49-.04.16-.02.31-.07.45-.14.14-.07.25-.17.34-.29.09-.15.14-.32.13-.5" fill="#fffdfe"/>
                      <rect id="Rectangle_10" x="27.25" y="1.97" width="2.16" height="8.89" fill="#fffdfe"/>
                      <path id="Path_22" d="M24.91,1.97l-3.43,8.89h-2.15L15.97,1.97h2.41l2.06,6.3h.05l2.05-6.3h2.37Z" fill="#fffdfe"/>
                      <path id="Path_23" d="M23.78,20.09v1.65h-5.58v-8h5.38v1.63h-3.51v1.51h3.32v1.55h-3.32v1.66h3.72Z" fill="#fffdfe"/>
                      <path id="Path_24" d="M16.34,20.05v1.68h-5.04v-8h1.94v6.32h3.1Z" fill="#fffdfe"/>
                      <rect id="Rectangle_11" x="11.48" y="1.97" width="2.16" height="8.89" fill="#fffdfe"/>
                      <path id="Path_25" d="M6.25,13.74l3.32,8h-2.15l-.62-1.57h-3.1l-.59,1.57H1.02l3.36-8h1.88ZM6.27,18.62l-.99-2.75-1.02,2.75h2.01Z" fill="#fffdfe"/>
                      <path id="Path_26" d="M7.54,8.23l1.5,1.41c-.4.46-.9.82-1.46,1.07-.63.28-1.31.41-2,.4-.65,0-1.29-.11-1.9-.34-.56-.21-1.08-.54-1.51-.96-.43-.42-.77-.93-1-1.49-.25-.61-.37-1.26-.37-1.91,0-.66.12-1.32.37-1.93.23-.56.58-1.06,1.02-1.48.44-.41.96-.73,1.53-.93,1.21-.44,2.54-.43,3.75,0,.57.19,1.07.53,1.48.97l-1.46,1.46c-.2-.28-.48-.49-.79-.62-.32-.13-.66-.2-1-.2-.36,0-.71.07-1.04.21-.31.13-.58.33-.81.57-.23.25-.41.54-.53.86-.13.35-.19.72-.19,1.09,0,.38.06.75.19,1.11.12.32.29.61.52.86.22.24.5.43.8.56.32.14.67.2,1.02.2.39,0,.77-.08,1.12-.25.3-.15.56-.38.76-.65" fill="#fffdfe"/>
                    </g>
                  </g>
                </g>
              </g>
            </g>
          </g>
        </g>
      </g>
    </g>
  </g>
</svg>